<?xml version="1.0" encoding="utf-8" ?><svg xmlns="http://www.w3.org/2000/svg" xmlns:xlink="http://www.w3.org/1999/xlink" width="2048" height="2048" viewBox="0 0 2048 2048"><path stroke="#C8943A" stroke-width="80" fill="none" d="M1235.47 487.235C1249.99 489.481 1274.37 488.196 1289.69 488.181L1411.16 488.169C1465.27 488.026 1514.75 481.388 1561.56 513.794C1578.2 525.318 1589.62 536.468 1602.16 552.374C1648.18 610.757 1630.8 668.651 1620.61 734.722L1589.13 937.071L1525.24 1344.07L1491.88 1560.82C1488.41 1584.37 1484.56 1608.38 1481.39 1632.11C1473.35 1692.34 1459.88 1737.39 1410.3 1776.98C1355.02 1821.11 1299.6 1812.7 1233.3 1812.99L1019.35 1813L822.427 1812.72L757.311 1812.66C749.474 1812.59 741.659 1812.37 733.829 1812.27C684.54 1811.63 635.159 1778.35 606.928 1739.8C594.862 1723.26 586.236 1704.47 581.56 1684.54C572.263 1644.29 565.435 1589.14 558.694 1547.81L513.911 1265.97C491.007 1124.71 468.887 983.318 447.551 841.808L431.215 736.455C425.513 700.437 414.76 652.402 420.42 617.217C430.425 555.009 492.432 494.211 556.081 489.066C573.808 487.633 591.907 488.122 609.565 488.187L704.561 488.371L1032.53 488.16L1102.55 488.11C1108.69 488.121 1126.5 488.908 1130.97 487.934C1142.02 487.111 1156.85 487.509 1168.21 487.504C1190.63 487.593 1213.05 487.503 1235.47 487.235ZM1116.18 543.742C1069.21 544.21 1022.25 544.274 975.281 543.934L703.781 543.981L608.112 543.859C596.432 543.834 584.635 543.929 573.063 543.904C518.199 543.786 471.444 595.067 472.888 649.411C473.071 656.318 474.948 663.998 476.045 670.857C489.048 750.77 501.36 833.846 514.174 913.52L551.146 1143.68C552.584 1152.51 553.122 1161.52 554.568 1170.61L614.126 1542.85C620.252 1578.94 625.099 1615.59 631.438 1651.67C632.507 1657.76 632.544 1663.45 634.206 1669.64C640.401 1692.34 653.087 1712.73 670.705 1728.32C686.311 1742.08 712.633 1755.17 733.449 1755.91C759.043 1756.83 785.315 1756.25 810.971 1756.19L973.839 1756.07L1209.73 1756.04L1276.62 1756.16C1290.57 1756.25 1311.51 1757.35 1325.42 1755.71C1346.64 1753.21 1378.75 1736.06 1392.82 1719.57C1422.81 1684.42 1422.18 1647.79 1429.43 1603.78L1453.8 1450.46L1517.39 1043.5L1565.34 739.105C1567.96 721.829 1571.32 704.705 1573.56 687.335C1575.59 676.007 1579.12 664.925 1579.75 653.393C1580.03 648.441 1579.73 643.995 1579.39 639.212C1576.49 598.617 1547.48 560.821 1508.47 548.359C1499.36 545.449 1492.46 543.997 1482.25 544.009C1471.71 537.508 1455.59 540.849 1446.22 539.615C1450.07 539.462 1454.15 539.022 1458 538.677C1448.89 537.435 1415.52 537.805 1405.02 537.973C1380.77 538.363 1350.25 536.975 1326.55 538.912L1341.01 539.329C1325.96 539.621 1313.58 541.028 1296.5 541.446C1277.21 541.917 1248.41 540.882 1228.59 541.903C1227.87 542.521 1227.15 543.14 1226.42 543.759L1225.74 543.834C1215.21 543.082 1197.95 543.663 1187 543.727C1172.71 543.811 1156.53 543.454 1142.43 544.022C1137.01 543.304 1122.03 543.621 1116.18 543.742Z"/><path stroke="#C8943A" stroke-width="80" fill="none" d="M1116.18 543.742C1122.03 543.621 1137.01 543.304 1142.43 544.022C1158 547.573 1182.76 542.474 1197.79 546.286C1196.87 546.053 1197.56 561.79 1208.58 553.668C1217.05 547.424 1213.2 563.261 1213.92 571.144C1210.65 576.161 1213.3 581.61 1211.53 586.387C1209.1 592.983 1207.52 599.634 1205.54 606.232C1202.67 615.839 1202.21 634.631 1196.2 641.929C1195.94 646.232 1196.44 646.655 1198.9 650.735C1205.56 652.633 1219.31 651.683 1226.78 652.469C1289.43 658.696 1350.24 665.38 1411.66 680.415C1449.93 689.784 1527.43 713.008 1519.67 766.412C1513.39 809.612 1503.71 853.731 1498.76 897.377C1497.68 906.876 1494.78 917.639 1493.29 927.349L1445.63 1232.92L1413.64 1434.01C1408.6 1466.24 1403.62 1498.57 1398.22 1530.56C1384.5 1611.88 1331.51 1677.01 1252.65 1702.96C1214.51 1715.51 1179.6 1712.33 1139.94 1712.31L1012.53 1712.48L899.999 1712.55C850.472 1712.65 814.34 1715.4 768.371 1691.47C715.241 1663.8 673.382 1615.97 657.887 1557.46C655.396 1548.05 656.77 1543.83 655.244 1535.21L638.429 1436.11C616.008 1303.22 595.041 1170.08 575.532 1036.72C574.132 1026.82 570.805 1016.24 569.709 1006.22C567.943 990.086 564.36 974.422 561.764 958.462L542.635 834.393C540.138 819.062 537.281 805.659 535.434 790.098C533.926 777.393 530.731 770.573 531.463 756.492C532.256 741.492 539.1 727.456 550.43 717.594C621.508 655.035 840.265 653.393 935.531 647.49C981.113 644.666 1025.82 642.902 1071.52 643.987C1079.29 644.171 1086.1 647.268 1093.45 647.4C1095.13 651.792 1088.46 673.738 1086.9 681.362C1093.41 678.689 1089.84 679.314 1092.65 673.415L1092.83 673.465C1094.45 675.833 1092.94 677.245 1093.42 678.455C1098.61 677.292 1093.99 653.951 1094.84 650.538C1095.58 647.622 1095.55 646.93 1095.59 643.81C1096.73 625.114 1113.28 567.07 1119.89 548.549C1119.09 544.867 1119.94 546.609 1116.18 543.742ZM1054.92 802.51C1057.34 800.216 1059.06 799.311 1059.41 795.704C1061.54 774.183 1082.18 719.061 1080.12 700.312C998.326 696.868 913.462 701.662 831.986 707.501C770.907 711.878 709.466 719.035 649.898 733.694C647.005 734.397 626.426 739.854 625.23 741.074C617.735 748.721 602.352 744.005 601.612 756.246C609.793 773.142 821.519 799.585 852.096 799.589C877.037 799.593 1046.89 807.43 1054.92 802.51ZM1170.75 796.651C1174.2 795.557 1201.28 795.904 1208.52 795.135C1275.36 788.032 1342.17 781.726 1408.24 768.783C1417.68 766.933 1442.88 762.978 1450.48 759.1C1452.03 755.93 1451.65 757.656 1450.91 753.64C1446.14 748.114 1435.9 745.688 1428.87 743.267C1371.2 723.403 1310.15 717.53 1249.97 709.665C1230.07 707.064 1211.31 707.5 1190.82 704.523C1185.34 705.138 1184.05 707.221 1180.05 711.383C1180.82 725.044 1170.28 759.103 1167.66 774.638C1166.92 778.984 1162.43 790.834 1162.6 794.544C1165.82 796.48 1167.05 796.317 1170.75 796.651ZM600.177 834.883C599.417 844.19 606.888 889.123 610.441 897.614C617.734 902.045 621.752 890.67 626.689 887.537C631.859 884.257 638.443 885.052 642.395 879.295C646.202 874.397 668.264 871.366 674.582 871.752C690.602 872.729 710.684 875.296 725.561 881.764C726.415 883.388 726.954 883.311 726.054 885.171C720.403 896.843 717.651 913.896 710.137 924.356C685.357 923.274 665.608 924.434 646.327 942.127C617.284 968.777 624.234 999.191 630.189 1032.99L639.367 1087.27C640.742 1095.32 645.583 1140.55 650.627 1143.49C667.885 1153.54 692.962 1158.02 710.423 1170.07C727.663 1182.24 744.689 1201.82 754.92 1220.35C759.916 1230.79 761.247 1241 767.547 1253.29C764.53 1255.45 761.384 1257.63 758.47 1259.92C746.964 1258.87 725.351 1269.73 719.859 1266.87C712.649 1258.95 711.548 1251.49 706.824 1242.69C699.602 1229.23 677.918 1204.24 661.249 1206.27C657.586 1210.65 662.503 1226.71 663.218 1233.27C666.552 1263.93 674.281 1294.03 676.669 1324.87C677.698 1338.15 703.713 1332.5 712.518 1330.8C778.185 1318.16 842.332 1295.23 894.896 1252.88C905.603 1249.13 929.995 1223.89 939.279 1215.82C974.015 1185.65 1004.39 1150.51 1035.88 1116.98C1060.94 1090.28 1081.87 1055.45 1104.99 1027.78C1151.48 972.121 1184.09 906.183 1245.03 863.77C1250.06 860.305 1258.13 855.887 1260.93 850.396C1258.24 847.444 1256.37 846.918 1252.33 846.905C1241.14 846.87 1229.39 850.122 1218.48 851.152C1205.95 852.336 1192.31 851.599 1179.72 852.465C1168.96 853.205 1158.35 855.366 1147.46 855.873C1059.37 859.7 971.158 859.66 883.074 855.752C812.205 851.614 741.589 843.907 671.495 832.66C658.818 830.803 646.213 828.489 633.704 825.721C625.682 823.949 604.282 817.502 598.723 817.717C593.43 825.199 595.494 828.304 600.177 834.883ZM1391.99 1184.33C1366.02 1188.62 1320.08 1199.8 1297.29 1214.17C1289.35 1219.17 1271.1 1226.09 1267.87 1233.39C1267.39 1234.48 1268.27 1235.33 1269.01 1236.67C1275.73 1241.18 1280.34 1240.22 1286.41 1243.11C1300.55 1249.84 1321.66 1260.34 1332.37 1271.61C1345.92 1282.89 1356.99 1293.1 1364.96 1308.98C1367.51 1314.06 1371.7 1324.3 1376.73 1324.86C1378.78 1323.81 1379.67 1323.81 1380.24 1321.4C1381.96 1314.1 1378.07 1307.1 1381.88 1299.8C1384.04 1295.67 1399.83 1189.88 1399.27 1188.4C1398.53 1186.46 1397.1 1184.87 1395.02 1184.37C1394.23 1184.17 1392.83 1184.29 1391.99 1184.33ZM1450.58 812.944C1440.51 820.215 1406.21 828.62 1392.39 834.597C1348.7 853.494 1304.04 881.508 1268.9 913.365C1247.56 932.744 1227.97 953.957 1210.34 976.759C1195.48 996.335 1182.06 1016.85 1167.3 1036.58C1096.21 1131.65 1017.43 1225.33 924.094 1299.3C861.891 1348.59 780.078 1380.58 701.535 1387.54C686.817 1388.84 686.172 1391.05 689.432 1407.56C691.975 1420.45 693.938 1436.49 698.115 1448.7C704.412 1454.83 745.658 1444.28 756.112 1442.77C759.046 1442.35 764.067 1439.37 767.171 1438.71C788.435 1434.42 810.084 1425.29 829.457 1415.61C833.144 1413.77 840.246 1410.75 842.974 1408.35C857.948 1399.32 869.326 1393.29 883.987 1382.86C908.673 1365.17 931.987 1345.64 953.732 1324.44C971.791 1306.51 987.968 1286.8 1005.89 1268.47C1118.96 1152.72 1247.46 1017.28 1421.1 1014.52C1423.71 1014.48 1424.68 999.24 1424.85 996.795C1426 980.312 1437.89 939.812 1434.87 926.028C1429.8 920.204 1420.23 926.516 1414.97 926.925C1385.3 929.238 1367.31 948.427 1355.34 973.818C1352.83 979.153 1325.82 970.07 1320.35 969.893C1315.39 969.337 1306.06 968.411 1302.16 966.112C1298.33 959.576 1306.16 949.484 1309.08 942.675C1327.63 899.457 1374.38 872.709 1420.44 871.788C1427.25 871.652 1441.71 875.425 1446.67 871.443C1450.18 854.778 1449.73 836.476 1454.49 819.977C1455.23 817.411 1452.43 814.464 1450.58 812.944ZM710.196 1504.57C708.402 1507.42 705.535 1511.68 704.132 1514.61C710.467 1527.18 710.268 1543.53 714.814 1556.09C738.002 1620.12 800.562 1661.81 868.567 1659.71C876.666 1659.46 884.928 1661.54 893.59 1660.55L895.551 1658.73C895.464 1655.63 895.637 1655.6 892.999 1652.8C890.478 1650.11 887.364 1648.8 884.09 1647.61C847.647 1634.32 824.129 1595.58 809.601 1561.63C807.92 1557.7 806.193 1553.77 807.541 1549.27C808.33 1546.63 810.258 1545.09 812.763 1544.25C819.669 1541.91 828.34 1540.73 835.528 1539.64C842.228 1538.63 847.317 1531.56 853.239 1535.62C858.663 1539.33 861.123 1550.99 864.401 1556.38C886.181 1592.18 914.841 1611.6 955.084 1619.55L957.737 1618.27C958.008 1616.82 958.325 1613.88 956.922 1612.82C923.117 1587.41 908.172 1541.44 919.66 1500.6C926.497 1476.29 929.064 1487.28 941.9 1491.48C960.863 1497.69 973.277 1494.86 968.573 1521.42C963.384 1551.08 976.303 1569.34 998.351 1587.14C1004.91 1592.43 977.46 1615.42 984.561 1625.83C993.996 1639.66 1013.53 1649.47 1028.54 1654.27C1037.23 1656.98 1046.19 1658.72 1055.27 1659.46C1067.2 1660.44 1082.2 1660.15 1094.26 1659.86C1156.72 1658.4 1207.93 1668.44 1266.03 1637.78C1301.27 1619.51 1327.52 1587.64 1338.69 1549.55C1344.38 1530.72 1345.87 1512.35 1349.49 1494.18C1358.68 1447.93 1363.21 1404.74 1339.34 1362.58C1306.92 1305.32 1255.07 1277.58 1191.09 1272.35C1180.23 1271.46 1152.75 1283.21 1144.84 1278.28C1144.3 1276.75 1143.94 1276.72 1144.63 1275.11C1147.83 1267.61 1159.65 1258.35 1165.48 1252.22C1209.69 1205.66 1251.84 1169.11 1313.97 1147.67C1332.08 1141.42 1370.58 1131.03 1388.62 1132.06C1393.7 1132.35 1403.08 1134.52 1406.31 1129.81C1407.16 1128.57 1415.77 1078.16 1416.02 1073.79C1416.14 1071.84 1415.89 1070.1 1415.21 1068.26C1414.5 1066.36 1414.05 1066.24 1412.59 1064.99C1411.36 1064.99 1410.11 1064.88 1408.99 1065.16C1403.05 1068.72 1367.33 1073.59 1357.39 1076.41C1121.3 1143.33 1022.52 1416.51 788.735 1488.48C767.16 1495.13 732.576 1504.81 710.196 1504.57Z"/><path stroke="#C8943A" stroke-width="80" fill="none" d="M1116.18 543.742C1122.03 543.621 1137.01 543.304 1142.43 544.022C1158 547.573 1182.76 542.474 1197.79 546.286C1196.87 546.053 1197.56 561.79 1208.58 553.668C1217.05 547.424 1213.2 563.261 1213.92 571.144C1210.65 576.161 1213.3 581.61 1211.53 586.387C1209.1 592.983 1207.52 599.634 1205.54 606.232C1202.67 615.839 1202.21 634.631 1196.2 641.929C1195.94 646.232 1196.44 646.655 1198.9 650.735C1196.58 651.925 1195.26 652.299 1194.56 655.6C1191.99 667.806 1184.69 692.352 1184.13 703.402C1186.31 704.858 1187.72 704.373 1190.82 704.523C1185.34 705.138 1184.05 707.221 1180.05 711.383C1180.82 725.044 1170.28 759.103 1167.66 774.638C1166.92 778.984 1162.43 790.834 1162.6 794.544C1165.82 796.48 1167.05 796.317 1170.75 796.651C1163.4 798.249 1143.56 798.929 1135.27 799.375C1108.5 800.828 1081.72 801.873 1054.92 802.51C1057.34 800.216 1059.06 799.311 1059.41 795.704C1061.54 774.183 1082.18 719.061 1080.12 700.312C1083.37 698.371 1085.62 686.085 1086.9 681.362C1093.41 678.689 1089.84 679.314 1092.65 673.415L1092.83 673.465C1094.45 675.833 1092.94 677.245 1093.42 678.455C1098.61 677.292 1093.99 653.951 1094.84 650.538C1095.58 647.622 1095.55 646.93 1095.59 643.81C1096.73 625.114 1113.28 567.07 1119.89 548.549C1119.09 544.867 1119.94 546.609 1116.18 543.742Z"/><path stroke="#C8943A" stroke-width="80" fill="none" d="M830.991 884.427C888.908 880.174 906.172 905.27 938.382 947.678C950.825 964.062 972.637 983.078 988.185 997.054C1015.85 1021.92 1023.73 1057.48 1005.25 1090.65C995.474 1108.07 984.756 1115.52 970.736 1128.37C953.947 1143.76 938.17 1158.87 920.583 1173.37C903.796 1187.42 882.503 1219.77 858.642 1220.42C849.132 1225.39 842.172 1224.28 832.284 1222.69C800.005 1217.51 786.237 1194.26 769.448 1169.37C762.374 1160.61 753.977 1149.35 746.354 1141.35C711.536 1104.78 668.052 1085.15 680.562 1025.91C688.99 985.997 716.354 982.678 743.554 958.652C766.417 938.456 787.33 913.884 810.874 894.323C816.455 889.739 824.545 888.961 830.991 884.427ZM732.142 1052.94C745.905 1072.72 766.025 1083.98 782.588 1100.91C793.802 1112.38 803.677 1126.08 813.431 1138.78C822.709 1150.87 826.327 1167.33 843.799 1168.03C851.473 1167.51 853.166 1167.49 858.177 1161.78C883.887 1132.48 912.207 1105.77 943.071 1081.99C947.021 1078.95 952.153 1072.5 955.466 1068.51C958.619 1048.47 955.655 1038.97 939.37 1026.55C922.305 1013.54 906.195 997.952 893.91 980.332C881.065 961.91 872.245 936.57 845.215 936.984C834.356 941.834 832.296 944.606 824.357 953.483C807.274 972.585 785.782 992.958 764.882 1007.87C743.12 1023.4 729.067 1018.24 732.142 1052.94Z"/><path stroke="#C8943A" stroke-width="80" fill="none" d="M1018.71 876.631C1024.24 876.918 1034.15 885.437 1038.58 888.74C1072.64 914.109 1092.09 948.638 1092.3 991.539C1092.37 1004.43 1097.21 1045.7 1072.6 1028.2C1067.46 1027.9 1048.65 1024.69 1044.29 1022.13C1033.99 1015.66 1040.89 1000.54 1039.23 990.043C1036.41 972.272 1031.47 958.577 1020.55 944.333C1014.32 936.212 996.564 926.359 994.332 918.001C995.909 912.241 1013.26 880.75 1018.71 876.631Z"/><path stroke="#C8943A" stroke-width="80" fill="none" d="M1176.52 1316.23C1200.12 1314.91 1218.79 1316.59 1238.4 1331.15C1266.11 1351.7 1271.74 1374.99 1275.71 1407.27C1277.71 1423.6 1282.24 1444.47 1285.91 1460.73C1289.62 1478.67 1300.45 1495.4 1302.76 1513.66C1306.23 1540.97 1289.92 1575.92 1265.81 1589.8C1250.86 1598.42 1232.15 1599.11 1216.01 1602.42C1196.81 1606.53 1177.64 1610.83 1158.52 1615.33C1145.79 1618.35 1134.37 1622.36 1121.61 1625.07C1105.9 1631.54 1084.86 1626.38 1070.14 1619.12C1024.3 1596.51 1023.11 1539.24 1015.01 1495.4C1008.41 1459.71 983.788 1428.74 1002.98 1394.41C1025.05 1351.41 1059.97 1356.4 1099.76 1343.52C1125.53 1335.53 1150.83 1324.34 1176.52 1316.23ZM1106.73 1574.89C1119.53 1576.85 1133.78 1565.76 1146.19 1561.99C1160.94 1557.5 1175.88 1553.97 1190.79 1550.08C1205.66 1546.19 1225.81 1547.58 1238.73 1539.01C1248.75 1532.37 1248.09 1517.87 1247.82 1507.46C1234.5 1490.12 1227.59 1449.56 1224.96 1427.64C1223 1411.3 1223.09 1393.38 1215.05 1378.2C1206.2 1372.25 1201.59 1368.58 1190.59 1368.29C1173.54 1372.8 1159.51 1383.2 1140.76 1387.06C1123.77 1390.56 1106.19 1397.03 1088.46 1398.83C1070.27 1401.65 1059.58 1398.92 1048.17 1416.35C1045.9 1441.57 1051.92 1445.18 1062.9 1466.74C1071.51 1483.65 1077.35 1505.53 1079.35 1524.53C1080.85 1538.66 1078.44 1559.49 1092.27 1568.83C1096.92 1571.97 1101.69 1572.81 1106.73 1574.89Z"/><path stroke="#C8943A" stroke-width="80" fill="none" d="M1226.42 543.759C1227.15 543.14 1227.87 542.521 1228.59 541.903C1248.41 540.882 1277.21 541.917 1296.5 541.446C1313.58 541.028 1325.96 539.621 1341.01 539.329L1326.55 538.912C1350.25 536.975 1380.77 538.363 1405.02 537.973C1415.52 537.805 1448.89 537.435 1458 538.677C1454.15 539.022 1450.07 539.462 1446.22 539.615C1455.59 540.849 1471.71 537.508 1482.25 544.009C1449.55 544.477 1415.51 543.89 1382.67 543.909C1330.59 544.151 1278.51 544.101 1226.42 543.759Z"/><path stroke="#C8943A" stroke-width="80" fill="none" d="M1142.43 544.022C1156.53 543.454 1172.71 543.811 1187 543.727C1197.95 543.663 1215.21 543.082 1225.74 543.834C1207.55 550.474 1222.02 556.609 1213.92 571.144C1213.2 563.261 1217.05 547.424 1208.58 553.668C1197.56 561.79 1196.87 546.053 1197.79 546.286C1182.76 542.474 1158 547.573 1142.43 544.022ZM1206.49 551.939C1207.78 550.615 1207.74 548.498 1206.42 547.213C1205.09 545.929 1202.97 545.966 1201.69 547.295C1200.41 548.62 1200.45 550.73 1201.77 552.011C1203.1 553.292 1205.21 553.259 1206.49 551.939Z"/><path stroke="#C8943A" stroke-width="80" fill="none" d="M1201.69 547.295C1202.97 545.966 1205.09 545.929 1206.42 547.213C1207.74 548.498 1207.78 550.615 1206.49 551.939C1205.21 553.259 1203.1 553.292 1201.77 552.011C1200.45 550.73 1200.41 548.62 1201.69 547.295Z"/><path stroke="#C8943A" stroke-width="80" fill="none" d="M1093.45 647.4C1094.06 646.285 1094.81 644.777 1095.59 643.81C1095.55 646.93 1095.58 647.622 1094.84 650.538C1093.99 653.951 1098.61 677.292 1093.42 678.455C1092.94 677.245 1094.45 675.833 1092.83 673.465L1092.65 673.415C1089.84 679.314 1093.41 678.689 1086.9 681.362C1088.46 673.738 1095.13 651.792 1093.45 647.4Z"/><path stroke="#C8943A" stroke-width="80" fill="none" d="M1192.02 195.035C1211.93 169.494 1284.01 192.795 1300.24 215.824C1300.67 239.428 1290.21 237.308 1285.25 256.889C1281.95 269.869 1279 286.206 1276.1 299.592L1258.46 378.249L1240.07 457.603C1238.16 465.614 1235.38 473.149 1233.23 481.064C1232.47 483.824 1233.74 484.569 1235.47 487.235C1213.05 487.503 1190.63 487.593 1168.21 487.504C1156.85 487.509 1142.02 487.111 1130.97 487.934C1132.4 486.623 1134.15 484.798 1134.34 482.788C1135.54 470.555 1137.99 459.328 1140.79 447.366L1173.26 304.736C1179.24 278.284 1186.09 251.626 1191.22 225.048C1192.37 219.096 1191.94 202.096 1192.02 195.035Z"/></svg>