<?xml version="1.0" encoding="utf-8" ?><svg xmlns="http://www.w3.org/2000/svg" xmlns:xlink="http://www.w3.org/1999/xlink" width="2048" height="2048" viewBox="0 0 2048 2048"><path stroke="#C90316" stroke-width="2" fill="none" d="M974.748 324.479C1144.76 318.738 1314.37 344.396 1475.08 400.166C1525.02 418.245 1574.1 438.608 1622.17 461.192C1640.68 469.709 1666.94 479.867 1682.34 492.618C1757.13 554.759 1746.51 679.829 1654.07 718.793C1630.16 728.874 1634.72 727.446 1634.53 750.653C1634.09 786.267 1633.95 821.884 1634.11 857.501C1634.13 876.364 1634.33 895.33 1634.06 914.225C1633.29 968.552 1568.21 1000.45 1526.06 965.249C1519.1 960.32 1510.47 938.837 1499.92 946.112C1437.12 989.519 1469.49 1066.75 1445.15 1126.57C1438.39 1146.41 1424.89 1158.39 1412.78 1174.26C1376.73 1221.5 1384.76 1283.38 1384.18 1338.85C1383.95 1361.21 1385.85 1375.53 1378.67 1396.99C1372.46 1415.18 1359.23 1430.13 1341.93 1438.49C1328.42 1444.98 1300.43 1447.83 1288.59 1440.36C1259.41 1421.98 1265.25 1425.51 1241.76 1450.04C1202.92 1490.6 1213.13 1545.95 1210.3 1596.99C1209.22 1616.41 1209.57 1633.72 1199.43 1651.24C1174.5 1696.86 1124.94 1690.99 1104.47 1741.2C1087.22 1783.51 1103.83 1814.36 1090.25 1855C1087.12 1864.35 1074.5 1883.53 1065.5 1888.01C1037.89 1909.25 999.961 1905.66 975.011 1882.25C947.504 1856.45 952.853 1829.87 951.734 1796.13C941.197 1785.24 929.089 1770.15 919.008 1761.21C887.235 1733.02 856.705 1709.79 859.206 1663.03C859.607 1655.54 856.354 1641.17 856.38 1632.47C856.437 1613.53 854.87 1593.83 852.786 1574.97C851.919 1567.39 852.142 1557.78 851.616 1550.1C848.879 1510.15 828.22 1484.27 800.553 1457.79C798.982 1456.23 792.398 1449.95 791.26 1450.36C779.962 1454.49 770.004 1464.03 758.022 1467.07C724.696 1475.52 689.36 1461.47 675.947 1428.85C668.328 1410.32 670.495 1378.45 670.71 1358C671.203 1329.6 671.272 1301.2 670.918 1272.8C670.72 1254.96 671.33 1232.15 667.403 1215.2C659.044 1179.12 622.079 1164.87 605.464 1128.95C590.833 1097.32 598.417 1085.63 594.701 1052.63C592.591 1033.89 583.611 1025.98 579.476 1012.44C573.151 989.438 573.796 966.492 555.282 948.559C543.5 936.768 538.402 951.968 531.909 958.642C492.659 998.982 424.169 978.095 413.815 922.649C410.731 906.134 411.999 889.641 411.987 873.585L411.898 770.79C411.859 757.172 413.138 740.331 411.524 726.985C411.351 725.559 390.174 716.668 387.296 715.17C379.146 710.848 371.512 705.617 364.54 699.575C288.006 634.032 311.033 511.105 403.15 473.353C419.14 466.8 437.169 457.368 453.132 450.019C583.924 388.914 723.71 349.29 867.112 332.671C900.881 328.842 940.355 326.854 974.748 324.479ZM556.56 862.838C549.259 858.983 556.779 822.357 552.07 818.333C551.656 822.41 551.612 865.932 552.471 868.549C553.652 869.128 556.252 863.464 556.56 862.838Z"/><path stroke="#C90316" stroke-width="2" fill="none" d="M552.07 818.333C550.1 775.158 579.404 796.128 605.607 787.258C648.906 772.602 666.767 726.584 720.273 743.171C745.071 750.858 776.73 752.017 800.807 740.961C844.151 723.917 865.324 683.69 911.582 670.828C958.652 657.741 999.803 675.878 1042.51 694.472C1086.86 713.785 1131.4 706.807 1173.57 684.897C1203.27 706.761 1220.32 719.611 1257.83 725.605C1257.57 761.73 1266.76 793.802 1292.83 820.235C1315.16 843.205 1345.79 856.223 1377.82 856.356C1409.11 856.53 1439.16 844.156 1461.26 822.003C1471.46 811.822 1480.21 798.967 1487.16 786.363C1502.08 802.542 1499.35 813.577 1499.42 834.08C1499.49 853.404 1499.24 872.8 1499.13 892.122C1455.9 914.325 1435.75 935.762 1418.73 983.452C1413.05 999.366 1410.19 1022.19 1409.43 1039.05C1408.45 1060.76 1410.13 1076.21 1404.39 1097.56C1397.78 1122.1 1385.54 1127.54 1372.1 1147.3C1334.67 1200.47 1334.15 1261.44 1335.31 1323.55C1335.62 1340.53 1336.68 1367.48 1332.63 1383.78C1330.65 1391.75 1317.42 1399.34 1309.01 1396.15C1301.51 1393.31 1296.39 1385.85 1295.46 1377.51C1294.79 1366.79 1295.09 1355.69 1295.1 1344.88C1295.19 1323.6 1295.16 1302.32 1295 1281.04C1341.58 1233.96 1341.36 1164.2 1293.94 1117.69C1272.41 1096.72 1243.39 1085.23 1213.34 1085.76C1184.17 1086.29 1153.72 1099.2 1133.44 1120.29C1112.24 1142.65 1100.83 1172.54 1101.74 1203.34C1102.55 1232.08 1116.51 1262.41 1137.6 1281.96C1168.91 1310.98 1205.22 1315.97 1245.85 1308.27C1245.91 1332.26 1246.23 1356.81 1245.93 1380.76C1223.68 1398.39 1203.51 1415 1188.73 1440.07C1155.33 1427.27 1125.89 1425.09 1092.51 1439.96C1063.07 1453.4 1040.19 1478 1028.91 1508.33C1018.08 1537.75 1019.4 1570.27 1032.6 1598.71C1045.77 1626.98 1069.68 1648.83 1099.02 1659.41C1102.25 1660.56 1105.5 1661.63 1108.78 1662.62C1054.39 1704.75 1042.8 1752.25 1046.34 1819.24C1047.23 1835.97 1041.83 1855.03 1021.05 1852.21C1014.9 1851.41 1009.36 1848.12 1005.73 1843.1C996.327 1830.09 1003.36 1806.33 999.829 1790.23C997.285 1778.63 994.812 1772.78 988.39 1762.48C1012.69 1739.88 1029.14 1709.23 1030.36 1675.68C1031.77 1643.26 1019.95 1611.67 997.622 1588.13C971.338 1560.42 938.669 1548.76 901.11 1547.94L899.463 1547.91C895.096 1479.09 857.213 1445.01 810.44 1400.87C810.418 1381.27 810.506 1361.66 810.623 1342.06C810.682 1332.28 810.431 1320.88 802.724 1313.76C797.897 1309.31 792.135 1306.86 785.542 1306.81C778.847 1306.76 772.447 1309.56 767.937 1314.51C753.348 1330.28 765.561 1382.56 760.202 1403.8C758.139 1416.68 737.753 1426.88 727.353 1417.57C718.267 1409.43 719.614 1398.39 718.811 1387.16C714.122 1321.62 729.968 1245.37 707.419 1183.18C698.615 1158.89 673.99 1140.02 657.785 1121.14C635.784 1096.63 646.812 1068.87 639.424 1041.04C677.765 1041.18 708.514 1034.38 736.987 1006.02C758.445 984.841 770.469 955.916 770.345 925.77C769.917 894.65 757.129 864.979 734.799 843.299C712.952 821.561 683.283 809.518 652.466 809.879C619.858 810.193 593.158 822.74 570.499 845.978C564.36 852.275 561.791 856.688 556.56 862.838C549.259 858.983 556.779 822.357 552.07 818.333Z"/><path stroke="#C90316" stroke-width="2" fill="none" d="M848.294 978.014C910.274 969.312 967.552 1012.56 976.154 1074.55C984.756 1136.55 941.416 1193.76 879.408 1202.26C817.541 1210.74 760.492 1167.52 751.909 1105.67C743.327 1043.81 786.455 986.696 848.294 978.014Z"/><path stroke="#C90316" stroke-width="2" fill="none" d="M852.299 1021.59C889.235 1016.19 923.559 1041.74 928.974 1078.68C934.389 1115.61 908.845 1149.94 871.914 1155.37C834.964 1160.8 800.61 1135.24 795.192 1098.29C789.775 1061.34 815.346 1026.99 852.299 1021.59Z"/><path stroke="#C90316" stroke-width="2" fill="none" d="M962.503 1221.86C1024.61 1215.22 1080.34 1260.19 1086.95 1322.3C1093.57 1384.41 1048.57 1440.11 986.456 1446.7C924.389 1453.28 868.732 1408.31 862.12 1346.25C855.508 1284.19 900.442 1228.51 962.503 1221.86Z"/><path stroke="#C90316" stroke-width="2" fill="none" d="M964.496 1264.91C1001.94 1259.55 1036.61 1285.62 1041.86 1323.07C1047.12 1360.53 1020.95 1395.13 983.477 1400.27C946.161 1405.39 911.736 1379.35 906.505 1342.05C901.274 1304.75 927.211 1270.25 964.496 1264.91Z"/><path stroke="#C90316" stroke-width="2" fill="none" d="M1198.52 827.143C1259.94 821.529 1314.38 866.539 1320.4 927.919C1326.43 989.299 1281.78 1044.04 1220.45 1050.47C1158.52 1056.97 1103.15 1011.81 1097.07 949.845C1090.98 887.879 1136.52 832.81 1198.52 827.143Z"/><path stroke="#C90316" stroke-width="2" fill="none" d="M1199.02 870.934C1236.64 865.716 1271.35 892.046 1276.46 929.683C1281.57 967.321 1255.14 1001.95 1217.49 1006.95C1179.99 1011.93 1145.53 985.634 1140.44 948.15C1135.35 910.666 1161.55 876.131 1199.02 870.934Z"/><path stroke="#C90316" stroke-width="2" fill="none" d="M959.273 706.519C1020.44 699.181 1076.01 742.736 1083.5 803.889C1090.99 865.042 1047.57 920.718 986.435 928.355C925.09 936.018 869.179 892.415 861.666 831.052C854.152 769.688 897.891 713.884 959.273 706.519Z"/><path stroke="#C90316" stroke-width="2" fill="none" d="M961.199 750.7C998.078 744.399 1033.1 769.12 1039.52 805.98C1045.94 842.839 1021.33 877.944 984.493 884.48C947.488 891.045 912.189 866.3 905.742 829.274C899.295 792.248 924.153 757.029 961.199 750.7Z"/><path stroke="#C90316" stroke-width="2" fill="none" d="M1167.94 746.3C1182.46 743.569 1196.47 753.023 1199.36 767.504C1202.26 781.985 1192.97 796.101 1178.52 799.164C1169.03 801.176 1159.18 797.93 1152.75 790.666C1146.31 783.401 1144.28 773.239 1147.43 764.058C1150.57 754.877 1158.41 748.094 1167.94 746.3Z"/><path stroke="#C90316" stroke-width="2" fill="none" d="M1338.31 1038.38C1352.65 1035.39 1366.76 1044.4 1370.07 1058.67C1373.38 1072.95 1364.68 1087.25 1350.48 1090.87C1341.02 1093.29 1330.99 1090.39 1324.27 1083.3C1317.54 1076.21 1315.19 1066.04 1318.1 1056.72C1321.02 1047.4 1328.75 1040.38 1338.31 1038.38Z"/><path stroke="#C90316" stroke-width="2" fill="none" d="M1383.24 894.543C1397.88 893.359 1410.76 904.12 1412.2 918.732C1413.65 933.344 1403.12 946.418 1388.53 948.118C1378.86 949.245 1369.34 945.068 1363.63 937.193C1357.91 929.317 1356.89 918.97 1360.95 910.129C1365.02 901.287 1373.54 895.329 1383.24 894.543Z"/><path stroke="#C90316" stroke-width="2" fill="none" d="M1150.2 1324.37C1164.6 1321.12 1178.94 1330.09 1182.32 1344.47C1185.7 1358.84 1176.87 1373.26 1162.53 1376.77C1147.99 1380.33 1133.34 1371.36 1129.92 1356.79C1126.49 1342.23 1135.6 1327.66 1150.2 1324.37Z"/><path stroke="#C90316" stroke-width="2" fill="none" d="M1020.12 1136.48C1034.46 1132.98 1048.94 1141.67 1052.59 1155.97C1056.24 1170.26 1047.7 1184.83 1033.44 1188.63C1024.08 1191.13 1014.11 1188.4 1007.32 1181.5C1000.53 1174.6 997.971 1164.58 1000.62 1155.26C1003.27 1145.95 1010.72 1138.78 1020.12 1136.48Z"/><path stroke="#C90316" stroke-width="2" fill="none" d="M794.676 1222.31C809.512 1220.47 823.002 1231.08 824.711 1245.93C826.42 1260.78 815.69 1274.18 800.824 1275.75C786.146 1277.31 772.956 1266.74 771.269 1252.08C769.582 1237.41 780.028 1224.13 794.676 1222.31Z"/><path stroke="#C90316" stroke-width="2" fill="none" d="M1014.51 971.283C1023.89 968.449 1034.06 970.939 1041.07 977.782C1048.08 984.626 1050.81 994.739 1048.2 1004.18C1045.59 1013.62 1038.05 1020.89 1028.52 1023.16C1014.38 1026.53 1000.13 1018.05 996.338 1004.02C992.55 989.99 1000.6 975.489 1014.51 971.283Z"/><path stroke="#C90316" stroke-width="2" fill="none" d="M788.415 793.357C802.788 789.63 817.45 798.308 821.098 812.701C824.746 827.095 815.987 841.708 801.575 845.277C787.273 848.819 772.796 840.143 769.177 825.861C765.557 811.579 774.153 797.055 788.415 793.357Z"/><path stroke="#C90316" stroke-width="2" fill="none" d="M816.074 902.432C830.508 899.713 844.439 909.131 847.295 923.539C850.15 937.947 840.865 951.966 826.485 954.958C811.911 957.99 797.661 948.553 794.767 933.95C791.872 919.348 801.445 905.188 816.074 902.432Z"/><path stroke="#C90316" stroke-width="2" fill="none" d="M947.741 1476.35C961.03 1475.43 972.579 1485.39 973.617 1498.67C974.655 1511.95 964.793 1523.58 951.522 1524.74C938.088 1525.9 926.279 1515.89 925.228 1502.45C924.178 1489.01 934.289 1477.28 947.741 1476.35Z"/><path stroke="#C90316" stroke-width="2" fill="none" d="M1069.04 1051.26C1081.86 1047.98 1094.92 1055.7 1098.23 1068.51C1101.55 1081.33 1093.86 1094.41 1081.06 1097.75C1068.2 1101.11 1055.06 1093.4 1051.74 1080.53C1048.41 1067.67 1056.16 1054.55 1069.04 1051.26Z"/><path stroke="#C90316" stroke-width="2" fill="none" d="M693.014 1056.36C704.976 1052.81 717.544 1059.66 721.034 1071.64C724.525 1083.62 717.605 1096.15 705.607 1099.58C693.697 1102.99 681.274 1096.13 677.809 1084.23C674.345 1072.34 681.139 1059.88 693.014 1056.36Z"/><path stroke="#C90316" stroke-width="2" fill="none" d="M971.261 374.438C1012.99 373.323 1054.75 373.673 1096.46 375.488C1275.6 383.965 1444.79 428.343 1605.94 506.744C1626.19 516.592 1646.78 524.532 1662.13 541.63C1677.5 558.708 1685.53 581.149 1684.5 604.103C1683.31 625.816 1672.54 646.291 1656.43 660.679C1637.94 677.517 1612.69 684.825 1588.06 680.459C1568.75 677.124 1540.53 661.64 1521.98 652.982C1501.08 643.113 1479.87 633.905 1458.39 625.371C1338.3 577.583 1211.29 549.452 1082.25 542.058C919.045 534.172 756.019 560.931 603.898 620.576C581.759 629.521 559.771 638.839 537.945 648.525C515.43 658.678 477.745 680.28 455.437 681.761C433.484 683.275 411.838 675.947 395.321 661.408C378.634 646.781 368.448 626.118 367.01 603.975C363.022 537.362 422.376 517.115 472.161 493.937C599.088 434.746 734.836 396.699 874.037 381.3C905.595 377.83 939.452 376.115 971.261 374.438Z"/><path stroke="#C90316" stroke-width="2" fill="none" d="M995.626 590.459C1180.43 582.406 1376.13 631.374 1539.95 715.503C1555.33 723.401 1569.05 726.993 1586.07 729.036L1586.16 854.895C1586.21 873.386 1587.1 897.513 1585.17 915.879C1584.25 919.91 1579.98 926.274 1575.83 927.554C1544.96 937.07 1547.4 903.648 1547.44 884.082C1547.33 871.549 1547.84 858.387 1547.71 845.894C1547.41 817.184 1552.4 790.415 1532.87 766.429C1522.16 753.276 1512.28 746.274 1495.73 741.059C1485.82 737.939 1475.53 733.455 1465.75 729.846C1428.29 715.057 1390.8 699.906 1354.09 683.354C1345.8 679.615 1337.19 674.197 1328.15 672.632C1299.85 668.894 1282.83 686.376 1253.36 677.608C1227.73 669.982 1214.93 653.071 1191.82 641.701C1168.19 630.077 1147.33 645.453 1125.13 653.506C1096.23 663.993 1072.01 656.095 1045.32 643.669C972.892 608.79 900.978 606.558 835.77 657.602C818.866 670.834 800.505 690.656 780.996 697.907C747.186 710.474 719.945 686.726 683.074 692.843C655.503 697.418 642.495 705.186 620.463 722.784C613.567 728.028 601.623 737.276 592.907 738.928C565.952 744.041 547.055 737.578 524.645 758.283C501.107 780.03 502.676 802.263 502.678 832.02L502.752 879.788C502.819 893.967 505.195 912.636 495.748 924.229C486.253 935.881 463.795 927.296 462.842 913.169C461.486 893.084 462.508 872.303 462.563 852.053L462.363 729.221C495.471 727.5 525.833 707.026 556.714 692.738C581.848 680.928 607.449 670.14 633.453 660.398C749.432 617.049 871.846 593.41 995.626 590.459Z"/><path stroke="#C90316" stroke-width="2" fill="none" d="M642.105 854.367C657.441 853.454 670.787 855.298 684.393 862.928C701.409 872.579 713.856 888.637 718.959 907.522C723.808 925.705 721.223 945.07 711.772 961.343C700.197 980.971 685.193 990.162 663.849 995.844C655.686 997.541 628.449 999.012 623.035 990.712C618.363 983.55 616.493 968.696 612.881 960.045C605.186 941.616 595.055 926.728 582.269 911.485C588.254 879.066 610.091 859.602 642.105 854.367Z"/><path stroke="#C90316" stroke-width="2" fill="none" d="M1207.97 1133.04C1245.05 1130.12 1277.47 1157.82 1280.39 1194.9C1283.31 1231.98 1255.61 1264.4 1218.53 1267.32C1181.45 1270.24 1149.03 1242.54 1146.11 1205.46C1143.19 1168.38 1170.89 1135.96 1207.97 1133.04Z"/><path stroke="#C90316" stroke-width="2" fill="none" d="M1130.84 1475.44C1147.22 1473.44 1155.62 1475.99 1170.71 1481.38C1158.83 1533.99 1164.76 1567.51 1160.05 1618.02C1145.49 1623.64 1129.06 1621.93 1114.75 1616.42C1091.11 1607.94 1074.54 1587.52 1069.57 1563.11C1065.54 1543.77 1069.38 1523.63 1080.24 1507.13C1092.77 1488.46 1109.4 1479.68 1130.84 1475.44Z"/><path stroke="#C90316" stroke-width="2" fill="none" d="M903.631 1593.47C921.014 1594.28 935.294 1597.45 950.097 1607.25C966.921 1618.4 978.555 1635.84 982.38 1655.66C986.612 1677.88 981.551 1694.91 969.125 1713.1C963.739 1719.79 960.929 1722.38 954.176 1727.44C947.32 1722.65 934.32 1710.3 927.753 1704.28C907.236 1685.46 906.475 1664.5 904.973 1638.22C904.124 1623.32 903.677 1608.4 903.631 1593.47Z"/><path stroke="#C90316" stroke-width="2" fill="none" d="M1317.24 719.136C1334.13 725.02 1353.98 733.707 1370.72 740.569L1444.39 770.462C1437.19 783.102 1430.26 791.171 1418.09 799.096C1361.8 833.388 1296.99 783.627 1303.69 722.709L1317.24 719.136Z"/><path stroke="#C90316" stroke-width="2" fill="none" d="M552.07 818.333C556.779 822.357 549.259 858.983 556.56 862.838C556.252 863.464 553.652 869.128 552.471 868.549C551.612 865.932 551.656 822.41 552.07 818.333Z"/><path stroke="#C90316" stroke-width="2" fill="none" d="M723.671 1505.04C763.592 1497.91 801.691 1524.62 808.594 1564.58C815.496 1604.54 788.566 1642.49 748.566 1649.17C708.889 1655.79 671.313 1629.12 664.466 1589.48C657.619 1549.84 684.072 1512.11 723.671 1505.04ZM743.467 1600.45C756.549 1596.91 764.343 1583.5 760.943 1570.38C757.544 1557.26 744.217 1549.32 731.06 1552.57C722.42 1554.71 715.595 1561.33 713.189 1569.9C710.783 1578.47 713.167 1587.67 719.432 1593.99C725.697 1600.31 734.876 1602.78 743.467 1600.45Z"/><path stroke="#C90316" stroke-width="2" fill="none" d="M731.06 1552.57C744.217 1549.32 757.544 1557.26 760.943 1570.38C764.343 1583.5 756.549 1596.91 743.467 1600.45C734.876 1602.78 725.697 1600.31 719.432 1593.99C713.167 1587.67 710.783 1578.47 713.189 1569.9C715.595 1561.33 722.42 1554.71 731.06 1552.57Z"/><path stroke="#C90316" stroke-width="2" fill="none" d="M1300.95 1480.55C1326.46 1475.23 1352.85 1484.08 1369.99 1503.71C1387.13 1523.33 1392.35 1550.68 1383.65 1575.24C1374.94 1599.8 1353.66 1617.75 1327.99 1622.2C1289.22 1628.91 1252.23 1603.31 1244.85 1564.67C1237.47 1526.02 1262.44 1488.59 1300.95 1480.55ZM1320.52 1574.41C1328.83 1572.89 1335.68 1567.03 1338.47 1559.06C1341.26 1551.09 1339.55 1542.24 1334 1535.88C1328.45 1529.52 1319.91 1526.62 1311.64 1528.31C1299.02 1530.87 1290.83 1543.11 1293.26 1555.75C1295.7 1568.39 1307.86 1576.71 1320.52 1574.41Z"/><path stroke="#C90316" stroke-width="2" fill="none" d="M1311.64 1528.31C1319.91 1526.62 1328.45 1529.52 1334 1535.88C1339.55 1542.24 1341.26 1551.09 1338.47 1559.06C1335.68 1567.03 1328.83 1572.89 1320.52 1574.41C1307.86 1576.71 1295.7 1568.39 1293.26 1555.75C1290.83 1543.11 1299.02 1530.87 1311.64 1528.31Z"/></svg>